<svg xmlns="http://www.w3.org/2000/svg" version="1.1" xmlns:xlink="http://www.w3.org/1999/xlink" xmlns:svgjs="http://svgjs.dev/svgjs" width="1500" height="428" viewBox="0 0 1500 428"><g transform="matrix(1,0,0,1,-0.9084522071641459,-0.3951406514896689)"><svg viewBox="0 0 396 113" data-background-color="#ffffff" preserveAspectRatio="xMidYMid meet" height="428" width="1500" xmlns="http://www.w3.org/2000/svg" xmlns:xlink="http://www.w3.org/1999/xlink"><g id="tight-bounds" transform="matrix(1,0,0,1,0.24008861730862918,0.10454383900764697)"><svg viewBox="0 0 395.52 112.79113164319247" height="112.79113164319247" width="395.52"><g><svg viewBox="0 0 395.52 112.79113164319247" height="112.79113164319247" width="395.52"><g><svg viewBox="0 0 395.52 112.79113164319247" height="112.79113164319247" width="395.52"><g id="textblocktransform"><svg viewBox="0 0 395.52 112.79113164319247" height="112.79113164319247" width="395.52" id="textblock"><g><svg viewBox="0 0 395.52 112.79113164319247" height="112.79113164319247" width="395.52"><path d="M394.594 24.192C392.735 12.484 387.435 9.229 387.435 9.229 371.165-2.83 350.86-0.231 332.619 1.502 300.414 1.572 268.339 4.148 236.208 5.529 168.767 5.74 100.749 2.275 33.643 10.821 27.339 13.444-6.54 11.337 1.121 25.69 3.129 31.661 10.456 38.288 10.232 43.767 11.236 44.727 12.631 42.526 13.226 43.907 15.309 47.63 18.711 45.874 21.501 48.075 17.614 53.952 20.403 58.846 23.062 63.974 18.377 65.309 12.371 64.677 9.675 69.102 9.396 72.31 7.89 71.701 6.235 71.561 5.026 71.467 2.59 71.818 2.999 72.825 4.394 76.267-1.594 78.258 2.162 81.629-0.422 85.282 3.948 88.443 3.353 92.4 3.278 93.197 3.687 93.876 4.338 94.063 7.22 95.07 3.018 97.037 3.464 99.168 33.029 113.732 65.104 103.663 95.394 110.36 103.259 105.677 97.346 112.023 100.489 111.039 102.943 109.892 104.728 114.645 107.499 111.952 107.927 111.18 107.276 109.353 108.8 109.704 109.6 109.892 110.307 109.845 110.418 108.768 110.586 107.152 109.117 108.159 108.726 107.316 112.947 103.054 111.906 113.193 115.866 112.772 115.68 111.531 114.528 109.751 116.889 109.985 119.232 108.206 119.306 106.731 121.389 110.735 121.463 111.601 121.835 112.21 122.43 112.631 128.938 108.276 135.409 114.177 142.233 112.21 146.417 110.056 150.433 113.381 154.672 112.561 156.16 111.905 157.666 110.735 159.098 112.702 176.632 113.123 195.319 111.367 211.943 112.772 256.364 110.149 303.836 113.849 350.674 110.383 361.719 109.049 373.192 107.152 383.958 105.63 383.958 105.63 392.679 101.462 392.679 82.73S394.538 66.339 394.817 51.424C395.096 36.508 396.398 35.899 394.538 24.192Z" opacity="1" fill="#2b006b" data-fill-palette-color="tertiary"></path><g transform="matrix(1,0,0,1,55.76832,26.230666666666668)"><svg width="283.98335999999995" viewBox="1.5 -35.6 170.39 36.2" height="60.32979830985914" data-palette-color="#efefef"><path d="M13.2 0.6L13.2 0.6Q9.55 0.6 6.55-0.38 3.55-1.35 1.5-2.95L1.5-2.95 3.9-6.95Q5.7-5.45 7.95-4.5 10.2-3.55 13.2-3.55L13.2-3.55Q16.8-3.55 18.9-5.05 21-6.55 21-9.1L21-9.1Q21-10.55 20.4-11.68 19.8-12.8 18.07-13.88 16.35-14.95 13-16.2L13-16.2Q9.4-17.6 7.25-19.03 5.1-20.45 4.17-22.28 3.25-24.1 3.25-26.6L3.25-26.6Q3.25-29.1 4.63-31.13 6-33.15 8.68-34.38 11.35-35.6 15.15-35.6L15.15-35.6Q18.25-35.6 20.73-34.98 23.2-34.35 25.55-33.2L25.55-33.2 23.8-29.15Q22.1-30.15 19.83-30.83 17.55-31.5 15.05-31.5L15.05-31.5Q11.75-31.5 9.85-30.2 7.95-28.9 7.95-26.85L7.95-26.85Q7.95-25.55 8.5-24.55 9.05-23.55 10.68-22.6 12.3-21.65 15.55-20.45L15.55-20.45Q19.45-19 21.73-17.4 24-15.8 24.95-13.93 25.9-12.05 25.9-9.65L25.9-9.65Q25.9-6.4 24.28-4.1 22.65-1.8 19.78-0.6 16.9 0.6 13.2 0.6ZM53.9 0L32.9 0 32.9-35 53.9-35 53.9-30.9 37.65-30.9 37.65-20.25 51.65-20.25 51.65-16.25 37.65-16.25 37.65-4.1 53.9-4.1 53.9 0ZM81.45 0L60.65 0 60.65-35 65.4-35 65.4-4.25 81.45-4.25 81.45 0ZM106.99 0L86.19 0 86.19-35 90.94-35 90.94-4.25 106.99-4.25 106.99 0ZM124.24 0.6L124.24 0.6Q120.34 0.6 117.29-0.83 114.24-2.25 112.12-4.73 109.99-7.2 108.87-10.5 107.74-13.8 107.74-17.55L107.74-17.55Q107.74-22.7 109.72-26.78 111.69-30.85 115.39-33.23 119.09-35.6 124.24-35.6L124.24-35.6Q128.09-35.6 131.17-34.2 134.24-32.8 136.39-30.3 138.54-27.8 139.67-24.55 140.79-21.3 140.79-17.55L140.79-17.55Q140.79-13.8 139.67-10.5 138.54-7.2 136.39-4.73 134.24-2.25 131.19-0.83 128.14 0.6 124.24 0.6ZM124.24-3.5L124.24-3.5Q128.09-3.5 130.69-5.35 133.29-7.2 134.62-10.38 135.94-13.55 135.94-17.55L135.94-17.55Q135.94-20.25 135.14-22.75 134.34-25.25 132.84-27.23 131.34-29.2 129.17-30.35 126.99-31.5 124.24-31.5L124.24-31.5Q120.59-31.5 117.97-29.65 115.34-27.8 113.97-24.65 112.59-21.5 112.59-17.55L112.59-17.55Q112.59-14.85 113.37-12.33 114.14-9.8 115.64-7.8 117.14-5.8 119.32-4.65 121.49-3.5 124.24-3.5ZM171.89-2.45L168.04 0.5 156.99-14.5 146.29 0.4 142.54-2.45 154.29-17.8 143.04-32.5 146.99-35.45 157.14-21.25 167.19-35.3 170.89-32.5 159.99-18.05 171.89-2.45Z" opacity="1" transform="matrix(1,0,0,1,0,0)" fill="#efefef" class="wordmark-text-0" data-fill-palette-color="quaternary" id="text-0"></path></svg></g></svg></g></svg></g></svg></g><g></g></svg></g><defs></defs></svg><rect width="395.52" height="112.79113164319247" fill="none" stroke="none" visibility="hidden"></rect></g></svg></g></svg>