<svg xmlns="http://www.w3.org/2000/svg" version="1.1" xmlns:xlink="http://www.w3.org/1999/xlink" xmlns:svgjs="http://svgjs.dev/svgjs" width="1500" height="304" viewBox="0 0 1500 304"><g transform="matrix(1,0,0,1,-0.2949280320193566,-0.54776368625852)"><svg viewBox="0 0 325 66" data-background-color="#2c3e50" preserveAspectRatio="xMidYMid meet" height="304" width="1500" xmlns="http://www.w3.org/2000/svg" xmlns:xlink="http://www.w3.org/1999/xlink"><g id="tight-bounds" transform="matrix(1,0,0,1,0.06436769408577447,1.4764235765269405)"><svg viewBox="0 0 324.8311570199436 63.282128906249994" height="63.282128906249994" width="324.8311570199436"><g><svg viewBox="0 0 324.8311570199436 63.282128906249994" height="63.282128906249994" width="324.8311570199436"><g><svg viewBox="0 0 324.8311570199436 63.282128906249994" height="63.282128906249994" width="324.8311570199436"><g id="textblocktransform"><svg viewBox="0 0 324.8311570199436 63.282128906249994" height="63.282128906249994" width="324.8311570199436" id="textblock"><g><svg viewBox="0 0 324.8311570199436 63.282128906249994" height="63.282128906249994" width="324.8311570199436"><g><svg><g></g><g></g></svg></g><g><svg><g><svg></svg></g><g></g></svg></g><g id="text-0"><svg viewBox="0 0 324.8311570199436 63.282128906249994" height="63.282128906249994" width="324.8311570199436"><g transform="matrix(1,0,0,1,0,0)"><svg width="218.45073852539062" viewBox="1.292083233342 -38.38 134.997916766658 39.11000000000001" height="63.282128906249994" data-palette-color="#ffffff"><path d="M10.25 0.61L10.25 0.61Q7.64 0.61 5.92 0.17 4.2-0.27 3.16-0.89 2.12-1.51 1.54-2.03L1.54-2.03Q1.1-2.44 1.44-2.95L1.44-2.95 3.93-6.64Q4.47-7.42 5.15-6.74L5.15-6.74Q5.86-6.05 7.07-5.41 8.28-4.76 10.08-4.76L10.08-4.76Q11.69-4.76 12.73-5.31 13.77-5.86 13.77-6.91L13.77-6.91Q13.77-7.64 13.31-8.11 12.84-8.57 11.67-9.06 10.5-9.55 8.4-10.3L8.4-10.3Q5.3-11.43 3.71-13.01 2.12-14.6 2.12-17.65L2.12-17.65Q2.12-20.46 3.67-22.22 5.22-23.97 7.65-24.79 10.08-25.61 12.72-25.61L12.72-25.61Q16.06-25.61 17.42-24.99 18.77-24.37 19.17-24.02L19.17-24.02Q19.53-23.71 19.68-23.29L19.68-23.29Q20-22.34 20.17-20.78L20.17-20.78Q20.26-19.87 19.7-19.58L19.7-19.58Q19.41-19.41 18.77-19.21 18.14-19.02 17.5-18.87 16.87-18.73 16.55-18.73L16.55-18.73Q16.46-18.73 16.35-18.79 16.24-18.85 15.97-19.09L15.97-19.09Q15.65-19.41 14.88-19.82 14.11-20.24 12.77-20.24L12.77-20.24Q11.45-20.24 10.56-19.81 9.67-19.38 9.67-18.31L9.67-18.31Q9.67-17.14 10.8-16.55 11.94-15.97 14.55-15.04L14.55-15.04Q16.6-14.33 18.13-13.49 19.65-12.65 20.48-11.29 21.31-9.94 21.31-7.64L21.31-7.64Q21.31-4.66 19.69-2.84 18.07-1.03 15.54-0.21 13.01 0.61 10.25 0.61ZM38.33 0.61L38.33 0.61Q34.2 0.61 31.15-0.72 28.1-2.05 26.41-4.86 24.73-7.67 24.73-12.11L24.73-12.11Q24.73-18.77 28.15-22.19 31.56-25.61 37.23-25.61L37.23-25.61Q40.92-25.61 43.47-24.29 46.02-22.97 47.35-20.65 48.68-18.33 48.68-15.36L48.68-15.36Q48.68-12.45 47.19-11.3 45.7-10.16 42.84-10.16L42.84-10.16 32.37-10.16Q32.57-7.64 34.21-6.32 35.86-5 38.69-5L38.69-5Q40.94-5 42.29-5.68 43.65-6.35 44.19-6.74L44.19-6.74Q44.65-7.08 45.24-7.06L45.24-7.06Q45.7-7.06 46.57-6.87 47.43-6.69 48.29-6.2L48.29-6.2Q48.9-5.88 48.9-5.32L48.9-5.32Q48.9-5 48.78-4.42L48.78-4.42Q48.7-4.08 48.53-3.43 48.36-2.78 48.09-2.22L48.09-2.22Q47.95-1.95 47.63-1.71L47.63-1.71Q47.14-1.37 46.05-0.81 44.97-0.24 43.09 0.18 41.21 0.61 38.33 0.61ZM32.32-15.16L32.32-15.16 40.28-15.16Q41.53-15.16 41.53-16.31L41.53-16.31Q41.53-18.04 40.44-19.23 39.35-20.41 37.18-20.41L37.18-20.41Q34.81-20.41 33.7-18.9 32.59-17.38 32.32-15.16ZM62.35-1.83L57.25 0.51Q56.73 0.73 56.51 0.73L56.51 0.73Q56.29 0.73 56.05 0.56L56.05 0.56Q55.49 0.17 54.77-1.35 54.05-2.88 54.05-6.05L54.05-6.05 54.05-34.33Q54.05-34.91 54.29-35.23L54.29-35.23Q55.32-36.57 57.29-38.13L57.29-38.13Q57.64-38.38 57.91-38.38L57.91-38.38Q58.22-38.38 58.52-38.13L58.52-38.13Q59.57-37.33 60.29-36.62 61.01-35.91 61.52-35.23L61.52-35.23Q61.76-34.91 61.76-34.33L61.76-34.33 61.76-7.54Q61.76-5.93 62.03-4.8 62.3-3.66 62.67-2.98L62.67-2.98Q63.08-2.17 62.35-1.83L62.35-1.83ZM76.75-1.83L71.65 0.51Q71.14 0.73 70.92 0.73L70.92 0.73Q70.7 0.73 70.45 0.56L70.45 0.56Q69.89 0.17 69.17-1.35 68.45-2.88 68.45-6.05L68.45-6.05 68.45-34.33Q68.45-34.91 68.69-35.23L68.69-35.23Q69.72-36.57 71.7-38.13L71.7-38.13Q72.04-38.38 72.31-38.38L72.31-38.38Q72.62-38.38 72.92-38.13L72.92-38.13Q73.97-37.33 74.69-36.62 75.41-35.91 75.92-35.23L75.92-35.23Q76.16-34.91 76.16-34.33L76.16-34.33 76.16-7.54Q76.16-5.93 76.43-4.8 76.7-3.66 77.07-2.98L77.07-2.98Q77.48-2.17 76.75-1.83L76.75-1.83ZM94.84 0.61L94.84 0.61Q88.69 0.61 85.1-2.66 81.51-5.93 81.51-12.4L81.51-12.4Q81.51-19.04 85.23-22.33 88.95-25.61 95.18-25.61L95.18-25.61Q101.19-25.61 104.8-22.38 108.41-19.14 108.41-12.84L108.41-12.84Q108.41-6.27 104.8-2.83 101.19 0.61 94.84 0.61ZM95.08-5.3L95.08-5.3Q97.77-5.3 99.14-6.97 100.5-8.64 100.5-12.7L100.5-12.7Q100.5-16.55 99.12-18.13 97.74-19.7 95.03-19.7L95.03-19.7Q92.42-19.7 90.92-18.01 89.42-16.31 89.42-12.5L89.42-12.5Q89.42-8.52 90.85-6.91 92.28-5.3 95.08-5.3ZM124.21-8.47L124.21-8.47Q121.62-6.98 120.62-5.22 119.62-3.47 119.62-0.9L119.62-0.9Q119.62-0.39 119.47-0.2 119.32 0 118.84 0L118.84 0 113.15 0Q112.07 0 112.07-1.39L112.07-1.39Q112.07-4.71 113.43-7.32 114.78-9.94 118.2-11.99L118.2-11.99Q115.61-13.43 114.14-15.89 112.66-18.36 112.66-21.12L112.66-21.12 112.66-21.51Q112.66-22.09 112.9-22.41L112.9-22.41Q113.93-23.75 115.91-25.32L115.91-25.32Q116.25-25.56 116.52-25.56L116.52-25.56Q116.83-25.56 117.13-25.32L117.13-25.32Q118.18-24.51 118.9-23.8 119.62-23.1 120.13-22.41L120.13-22.41Q120.37-22.09 120.37-21.51L120.37-21.51 120.37-21.12Q120.37-17.63 124.43-15.72L124.43-15.72Q126.28-16.75 127.05-18.09 127.82-19.43 127.82-21.12L127.82-21.12 127.82-21.51Q127.82-22.09 128.06-22.41L128.06-22.41Q129.04-23.75 130.99-25.32L130.99-25.32Q131.31-25.56 131.58-25.56L131.58-25.56Q131.9-25.56 132.17-25.32L132.17-25.32Q133.19-24.51 133.9-23.8 134.61-23.1 135.09-22.41L135.09-22.41Q135.34-22.09 135.34-21.51L135.34-21.51 135.34-21.12Q135.34-18.09 134-15.89 132.65-13.7 130.48-12.26L130.48-12.26Q133.51-10.55 134.9-7.75 136.29-4.96 136.29-1.39L136.29-1.39Q136.29-0.56 136.1-0.28 135.9 0 135.24 0L135.24 0 129.43 0Q128.58 0 128.58-1.17L128.58-1.17Q128.58-2.76 128.27-4 127.97-5.25 127.04-6.34 126.11-7.42 124.21-8.47Z" opacity="1" transform="matrix(1,0,0,1,0,0)" fill="#ffffff" class="wordmark-text-0" data-fill-palette-color="primary"></path></svg></g><g><svg xmlns="http://www.w3.org/2000/svg" viewBox="2 4.999571186350284 20.230623077721837 14.000857627299428" x="233.39126586914062" y="3.552713678800501e-15" height="63.28212890624999" width="91.43989115080296" class="icon-cg-0" data-fill-palette-color="accent" id="cg-0"><g fill="#ffffff" data-fill-palette-color="accent"><path d="M22.19 9.34l-3.25 9A1 1 0 0 1 18 19H8a1 1 0 0 1-1-0.76L4.22 7H3A1 1 0 0 1 3 5H5a1 1 0 0 1 1 0.76L8.78 17H17.3l3-8.34a1 1 0 0 1 1.88 0.68Zm-11.48 0.37L12 8.41V13a1 1 0 0 0 2 0V8.41l1.29 1.3a1 1 0 0 0 1.42 0 1 1 0 0 0 0-1.42l-3-3a1 1 0 0 0-0.33-0.21 1 1 0 0 0-0.76 0 1 1 0 0 0-0.33 0.21l-3 3a1 1 0 0 0 1.42 1.42Z" fill="#ffffff" data-fill-palette-color="accent"></path></g></svg></g></svg></g></svg></g></svg></g></svg></g><g></g></svg></g><defs></defs></svg><rect width="324.8311570199436" height="63.282128906249994" fill="none" stroke="none" visibility="hidden"></rect></g></svg></g></svg>